<?xml version="1.0" encoding="UTF-8"?>
<svg width="1264px" height="135px" viewBox="0 0 1264 135" version="1.1" xmlns="http://www.w3.org/2000/svg" xmlns:xlink="http://www.w3.org/1999/xlink">
    <title>congo_electric_logo_design</title>
    <g id="Page-1" stroke="none" stroke-width="1" fill="none" fill-rule="evenodd">
        <g id="congo_electric_logo_design" transform="translate(1.285114, 0.475096)" fill="#B20000">
            <g id="Group-4" transform="translate(-0.285114, -0.475096)">
                <g id="Group-2-Copy" transform="translate(-0.888141, 0.000000)">
                    <path d="M132,125 C132,128.865993 128.865993,132 125,132 L7,132 C3.13400675,132 4.73447626e-16,128.865993 0,125 L0,7 C-4.73447626e-16,3.13400675 3.13400675,7.10171439e-16 7,0 L125,0 C128.865993,-7.10171439e-16 132,3.13400675 132,7 L132,38.7142857 C132,34.8482925 128.865993,31.7142857 125,31.7142857 L125,31.7142857 L37.8571429,31.7142857 C33.9911496,31.7142857 30.8571429,34.8482925 30.8571429,38.7142857 L30.8571429,38.7142857 L30.8571429,94.1428571 C30.8571429,98.0088504 33.9911496,101.142857 37.8571429,101.142857 L37.8571429,101.142857 L125,101.142857 C128.865993,101.142857 132,98.0088504 132,94.1428571 L132,94.1428571 L132,125 Z" id="Combined-Shape"></path>
                </g>
                <polygon id="Path-2" points="73.7196313 29.5862069 51.4566863 81.3475245 72.6755436 72.9869057 59.2745051 106.965517 99.2497897 54.9132751 79.2351028 59.7162766 92.5629294 29.5862069"></polygon>
            </g>
            <g id="congo-electric" transform="translate(200.714886, 3.524904)" fill-rule="nonzero">
                <path d="M35.0493701,30.8769096 C14.1408532,30.8769096 0.498902821,45.5554525 0.498902821,64.9690092 C0.498902821,84.3825658 14.1408532,99.0611087 35.0493701,99.0611087 C44.8523797,99.0611087 53.6271016,95.5436698 59.5911703,88.7117213 L50.747896,78.9711215 C46.5661926,82.8267756 40.9448864,85.7354269 34.638055,85.7354269 C23.6011002,85.7354269 15.2376934,77.212402 15.2376934,64.9690092 C15.2376934,52.7256163 23.6011002,44.2025914 34.638055,44.2025914 C40.9448864,44.2025914 45.8121149,46.6377414 50.4051334,50.8992538 L59.5911703,41.226297 C53.7642066,34.3943485 44.8523797,30.8769096 35.0493701,30.8769096 Z" id="c"></path>
                <path d="M115.2401,30.8769096 C95.0121415,30.8769096 80.046186,45.5554525 80.046186,64.9690092 C80.046186,84.3825658 95.0121415,99.0611087 115.2401,99.0611087 C135.468058,99.0611087 150.502351,84.3825658 150.502351,64.9690092 C150.502351,45.5554525 135.468058,30.8769096 115.2401,30.8769096 Z M115.2401,44.2025914 C126.925846,44.2025914 135.809746,52.7256163 135.809746,64.9690092 C135.809746,77.212402 126.925846,85.7354269 115.2401,85.7354269 C103.554354,85.7354269 94.7387907,77.212402 94.7387907,64.9690092 C94.7387907,52.7256163 103.554354,44.2025914 115.2401,44.2025914 Z" id="o"></path>
                <path d="M212.349503,30.8769096 C205.600036,30.8769096 197.404256,32.8884476 192.101104,40.7265091 L192.101104,32.6109941 L177.775705,32.6109941 L177.775705,99.0611087 L192.238848,99.0611087 L192.238848,62.2291558 C192.238848,50.8535621 200.021396,44.6802216 209.31913,44.6802216 C218.961225,44.6802216 224.67761,50.9229254 224.67761,62.090429 L224.67761,99.0611087 L239.140752,99.0611087 L239.140752,57.3043561 C239.140752,41.7669597 228.052343,30.8769096 212.349503,30.8769096 Z" id="n"></path>
                <path d="M299.800373,30.8769096 C284.453856,30.8769096 268.686886,43.4049051 268.686886,64.5118541 C268.686886,85.618803 284.453856,98.1467985 299.800373,98.1467985 C309.540857,98.1467985 317.109003,94.8786257 322.154433,88.614628 L322.154433,93.8573217 C322.154433,105.976796 314.586287,113.330184 300.851505,113.330184 C292.65268,113.330184 284.874309,110.742881 278.076993,106.725752 L272.751261,118.777139 C279.828878,123.679398 290.830719,126.334788 300.851505,126.334788 C323.27564,126.334788 336.870272,113.738706 336.870272,93.2445394 L336.870272,32.5790829 L322.154433,32.5790829 L322.154433,40.4090801 C317.109003,34.2131693 309.540857,30.8769096 299.800373,30.8769096 Z M303.584446,44.2900352 C315.427193,44.2900352 323.415791,53.0732495 323.415791,64.5118541 C323.415791,75.9504586 315.427193,84.7336729 303.584446,84.7336729 C291.181097,84.7336729 283.753102,75.4738501 283.753102,64.5118541 C283.753102,53.4817711 291.181097,44.2900352 303.584446,44.2900352 Z" id="g"></path>
                <path d="M399.33754,30.8769096 C379.109581,30.8769096 364.143626,45.5554525 364.143626,64.9690092 C364.143626,84.3825658 379.109581,99.0611087 399.33754,99.0611087 C419.565498,99.0611087 434.599791,84.3825658 434.599791,64.9690092 C434.599791,45.5554525 419.565498,30.8769096 399.33754,30.8769096 Z M399.33754,44.2025914 C411.023286,44.2025914 419.907186,52.7256163 419.907186,64.9690092 C419.907186,77.212402 411.023286,85.7354269 399.33754,85.7354269 C387.651794,85.7354269 378.836231,77.212402 378.836231,64.9690092 C378.836231,52.7256163 387.651794,44.2025914 399.33754,44.2025914 Z" id="o"></path>
                <path d="M539.968782,30.8769096 C520.672151,30.8769096 507.328736,44.6760928 507.328736,64.9690092 C507.328736,85.5324978 521.219573,99.0611087 540.858343,99.0611087 C550.78037,99.0611087 559.812836,96.6936018 567.818885,89.9292963 L560.702397,79.8504812 C555.296603,84.1119936 548.31697,86.6824297 541.747904,86.6824297 C532.441727,86.6824297 524.161967,81.8121298 522.24599,70.1775244 L570.692851,70.1775244 C570.829707,68.5540911 570.966562,66.7277286 570.966562,64.9013661 C570.898134,44.6760928 558.307425,30.8769096 539.968782,30.8769096 Z M539.695071,43.4585178 C548.795965,43.4585178 554.749181,49.3434636 556.323019,59.4222787 L522.314417,59.4222787 C523.819828,49.952251 529.499333,43.4585178 539.695071,43.4585178 Z" id="e"></path>
                <polygon id="l" points="611.876594 -0.942383239 598.239916 -0.942383239 598.239916 99.0611087 611.876594 99.0611087"></polygon>
                <path d="M674.062774,30.8769096 C654.766143,30.8769096 641.422727,44.6760928 641.422727,64.9690092 C641.422727,85.5324978 655.313565,99.0611087 674.952335,99.0611087 C684.874362,99.0611087 693.906827,96.6936018 701.912876,89.9292963 L694.796388,79.8504812 C689.390594,84.1119936 682.410962,86.6824297 675.841896,86.6824297 C666.535719,86.6824297 658.255959,81.8121298 656.339981,70.1775244 L704.786843,70.1775244 C704.923698,68.5540911 705.060554,66.7277286 705.060554,64.9013661 C704.992126,44.6760928 692.401416,30.8769096 674.062774,30.8769096 Z M673.789063,43.4585178 C682.889956,43.4585178 688.843172,49.3434636 690.417011,59.4222787 L656.408409,59.4222787 C657.91382,49.952251 663.593325,43.4585178 673.789063,43.4585178 Z" id="e"></path>
                <path d="M764.611596,30.8769096 C743.703079,30.8769096 730.061129,45.5554525 730.061129,64.9690092 C730.061129,84.3825658 743.703079,99.0611087 764.611596,99.0611087 C774.414605,99.0611087 783.189327,95.5436698 789.153396,88.7117213 L780.310122,78.9711215 C776.128418,82.8267756 770.507112,85.7354269 764.200281,85.7354269 C753.163326,85.7354269 744.799919,77.212402 744.799919,64.9690092 C744.799919,52.7256163 753.163326,44.2025914 764.200281,44.2025914 C770.507112,44.2025914 775.374341,46.6377414 779.967359,50.8992538 L789.153396,41.226297 C783.326432,34.3943485 774.414605,30.8769096 764.611596,30.8769096 Z" id="c"></path>
                <path d="M859.974193,32.8872634 L834.820089,32.8872634 L834.820089,12.6944566 L820.426733,12.6944566 L820.426733,32.8872634 L807.335632,32.8872634 L807.335632,46.1170333 L820.426733,46.1170333 L820.426733,75.4314183 C820.426733,93.1871622 829.131286,101.333915 844.004421,101.333915 C852.229196,101.333915 858.877556,98.3398095 864.15512,94.7190303 L858.466317,83.0907588 C854.559549,85.5974521 849.693224,87.6167328 845.238137,87.6167328 C839.480795,87.6167328 834.820089,84.1352144 834.820089,75.1528969 L834.820089,46.1170333 L859.974193,46.1170333 L859.974193,32.8872634 Z" id="t"></path>
                <path d="M923.28257,30.8769096 C915.049901,30.8769096 908.154161,33.7901715 903.721186,40.1022387 L903.721186,32.6109941 L889.155695,32.6109941 L889.155695,99.0611087 L903.861915,99.0611087 L903.861915,62.5066093 C903.861915,51.2003789 910.546561,44.6802216 919.905065,44.6802216 C923.493664,44.6802216 927.997004,45.5125821 931.093051,47.1079397 L934.611285,32.7497208 C931.23378,31.4318167 927.78591,30.8769096 923.28257,30.8769096 Z" id="r"></path>
                <path d="M972.599172,32.3921141 L957.988446,32.3921141 L957.988446,99.0611087 L972.599172,99.0611087 L972.599172,32.3921141 Z M965.224234,-0.942383239 C959.449519,-0.942383239 955.066301,3.58108717 955.066301,9.35721092 C955.066301,15.1333347 959.449519,19.5176214 965.224234,19.5176214 C970.998949,19.5176214 975.521317,15.1333347 975.521317,9.35721092 C975.521317,3.58108717 970.998949,-0.942383239 965.224234,-0.942383239 Z" id="i"></path>
                <path d="M1037.34514,30.8769096 C1016.43662,30.8769096 1002.79467,45.5554525 1002.79467,64.9690092 C1002.79467,84.3825658 1016.43662,99.0611087 1037.34514,99.0611087 C1047.14815,99.0611087 1055.92287,95.5436698 1061.88694,88.7117213 L1053.04366,78.9711215 C1048.86196,82.8267756 1043.24065,85.7354269 1036.93382,85.7354269 C1025.89687,85.7354269 1017.53346,77.212402 1017.53346,64.9690092 C1017.53346,52.7256163 1025.89687,44.2025914 1036.93382,44.2025914 C1043.24065,44.2025914 1048.10788,46.6377414 1052.7009,50.8992538 L1061.88694,41.226297 C1056.05997,34.3943485 1047.14815,30.8769096 1037.34514,30.8769096 Z" id="c"></path>
            </g>
            <polygon id="Line-2" fill-rule="nonzero" points="166.714886 0.524904215 166.714886 134.524904 164.714886 134.524904 164.714886 0.524904215"></polygon>
        </g>
    </g>
</svg>